REM DIRINDEX 1\2,1\3,1\4,1\5
REM DIRNAME "folder01","folder02","folder03","folder04","folder05"
TITLE ""
FILE "P1Q_t_0578-0587.mp3" MP3
  TRACK 01 AUDIO
    TITLE "3:cjc173_2667"
    INDEX 01 00:00:00
  TRACK 02 AUDIO
    TITLE "0:"
    INDEX 01 00:01:29
  TRACK 03 AUDIO
    TITLE "4:cjc173_2668"
    INDEX 01 00:01:51
  TRACK 04 AUDIO
    TITLE "0:"
    INDEX 01 00:04:14
  TRACK 05 AUDIO
    TITLE "5:cjc173_2669"
    INDEX 01 00:04:34
  TRACK 06 AUDIO
    TITLE "0:"
    INDEX 01 00:08:59
  TRACK 07 AUDIO
    TITLE "3:cjc173_2670"
    INDEX 01 00:09:29
  TRACK 08 AUDIO
    TITLE "0:"
    INDEX 01 00:10:44
  TRACK 09 AUDIO
    TITLE "4:cjc173_2671"
    INDEX 01 00:10:66
  TRACK 10 AUDIO
    TITLE "0:"
    INDEX 01 00:14:16
  TRACK 11 AUDIO
    TITLE "5:cjc173_2672"
    INDEX 01 00:14:36
  TRACK 12 AUDIO
    TITLE "0:"
    INDEX 01 00:17:62
  TRACK 13 AUDIO
    TITLE "3:cjc173_2673"
    INDEX 01 00:18:36
  TRACK 14 AUDIO
    TITLE "0:"
    INDEX 01 00:19:55
  TRACK 15 AUDIO
    TITLE "4:cjc173_2674"
    INDEX 01 00:20:01
  TRACK 16 AUDIO
    TITLE "0:"
    INDEX 01 00:22:35
  TRACK 17 AUDIO
    TITLE "5:cjc173_2675"
    INDEX 01 00:22:57
  TRACK 18 AUDIO
    TITLE "0:"
    INDEX 01 00:27:05
  TRACK 19 AUDIO
    TITLE "3:cjc173_2676"
    INDEX 01 00:27:50
  TRACK 20 AUDIO
    TITLE "0:"
    INDEX 01 00:28:58
  TRACK 21 AUDIO
    TITLE "4:cjc173_2677"
    INDEX 01 00:29:04
  TRACK 22 AUDIO
    TITLE "0:"
    INDEX 01 00:31:38
  TRACK 23 AUDIO
    TITLE "5:cjc173_2678"
    INDEX 01 00:31:64
  TRACK 24 AUDIO
    TITLE "0:"
    INDEX 01 00:36:37
  TRACK 25 AUDIO
    TITLE "3:cjc173_2679"
    INDEX 01 00:37:08
  TRACK 26 AUDIO
    TITLE "0:"
    INDEX 01 00:38:34
  TRACK 27 AUDIO
    TITLE "4:cjc173_2680"
    INDEX 01 00:38:56
  TRACK 28 AUDIO
    TITLE "0:"
    INDEX 01 00:40:20
  TRACK 29 AUDIO
    TITLE "5:cjc173_2681"
    INDEX 01 00:40:39
  TRACK 30 AUDIO
    TITLE "0:"
    INDEX 01 00:44:08
  TRACK 31 AUDIO
    TITLE "3:cjc173_2682"
    INDEX 01 00:44:57
  TRACK 32 AUDIO
    TITLE "0:"
    INDEX 01 00:46:03
  TRACK 33 AUDIO
    TITLE "4:cjc173_2683"
    INDEX 01 00:46:24
  TRACK 34 AUDIO
    TITLE "0:"
    INDEX 01 00:51:19
  TRACK 35 AUDIO
    TITLE "5:cjc173_2684"
    INDEX 01 00:51:39
  TRACK 36 AUDIO
    TITLE "0:"
    INDEX 01 00:54:69
  TRACK 37 AUDIO
    TITLE "3:cjc173_2685"
    INDEX 01 00:55:41
  TRACK 38 AUDIO
    TITLE "0:"
    INDEX 01 00:56:73
  TRACK 39 AUDIO
    TITLE "4:cjc173_2686"
    INDEX 01 00:57:20
  TRACK 40 AUDIO
    TITLE "0:"
    INDEX 01 01:02:02
  TRACK 41 AUDIO
    TITLE "5:cjc173_2687"
    INDEX 01 01:02:21
  TRACK 42 AUDIO
    TITLE "0:"
    INDEX 01 01:06:56
  TRACK 43 AUDIO
    TITLE "3:cjc173_2688"
    INDEX 01 01:07:28
  TRACK 44 AUDIO
    TITLE "0:"
    INDEX 01 01:08:51
  TRACK 45 AUDIO
    TITLE "4:cjc173_2689"
    INDEX 01 01:08:73
  TRACK 46 AUDIO
    TITLE "0:"
    INDEX 01 01:10:60
  TRACK 47 AUDIO
    TITLE "5:cjc173_2690"
    INDEX 01 01:11:04
  TRACK 48 AUDIO
    TITLE "0:"
    INDEX 01 01:15:08
  TRACK 49 AUDIO
    TITLE "3:cjc173_2691"
    INDEX 01 01:15:55
  TRACK 50 AUDIO
    TITLE "0:"
    INDEX 01 01:17:21
  TRACK 51 AUDIO
    TITLE "4:cjc173_2692"
    INDEX 01 01:17:42
  TRACK 52 AUDIO
    TITLE "0:"
    INDEX 01 01:20:13
  TRACK 53 AUDIO
    TITLE "5:cjc173_2693"
    INDEX 01 01:20:37
  TRACK 54 AUDIO
    TITLE "0:"
    INDEX 01 01:24:07
  TRACK 55 AUDIO
    TITLE "3:cjc173_2694"
    INDEX 01 01:24:54
  TRACK 56 AUDIO
    TITLE "0:"
    INDEX 01 01:25:58
  TRACK 57 AUDIO
    TITLE "4:cjc173_2695"
    INDEX 01 01:26:02
  TRACK 58 AUDIO
    TITLE "0:"
    INDEX 01 01:28:56
  TRACK 59 AUDIO
    TITLE "5:cjc173_2696"
    INDEX 01 01:28:75
  TRACK 60 AUDIO
    TITLE "0:"
    INDEX 01 01:33:35
